<svg width="36" height="36" viewBox="0 0 36 36" fill="none" xmlns="http://www.w3.org/2000/svg">
<path d="M6.83998 10.94L7.02998 11.65C7.20998 12.3 6.71998 12.94 6.04998 12.94H4.30998C3.43998 12.94 2.72998 12.23 2.72998 11.36C2.72998 10.49 3.43998 9.78003 4.30998 9.78003H5.30998C6.01998 9.78003 6.64998 10.26 6.82998 10.95L6.83998 10.94Z" stroke="#FF464C" stroke-linecap="round"/>
<path d="M29.1599 10.94L28.9699 11.65C28.7899 12.3 29.2799 12.94 29.9499 12.94H31.6899C32.5599 12.94 33.2699 12.23 33.2699 11.36C33.2699 10.49 32.5599 9.78003 31.6899 9.78003H30.6899C29.9799 9.78003 29.3499 10.26 29.1699 10.95L29.1599 10.94Z" stroke="#FF464C" stroke-linecap="round"/>
<path d="M3.40001 18.83C3.40001 15.75 6.50001 11.63 10.7 11.63H25.3C28.95 11.63 32.6 14.71 32.6 18.83V23.97V26.38C32.6 27.32 31.84 28.08 30.9 28.08H5.09001C4.15001 28.08 3.39001 27.32 3.39001 26.38V18.83H3.40001Z" stroke="#FF464C" stroke-linejoin="round"/>
<path d="M7.31995 11.94C7.31995 7.19002 9.73995 2.77002 12.4299 2.77002H23.1799C25.8699 2.77002 28.5599 6.31002 28.5599 11.94" stroke="#FF464C" stroke-linejoin="round"/>
<path d="M10.04 28.71V26.61C10.04 25.67 10.8 24.91 11.74 24.91H24.28C25.22 24.91 25.98 25.67 25.98 26.61V28.71" stroke="#FF464C"/>
<path d="M4.72998 28.0801V32.3801C4.72998 32.8601 5.10998 33.2501 5.57998 33.2501H9.18998C9.65998 33.2501 10.04 32.8601 10.04 32.3801V28.0801" stroke="#FF464C"/>
<path d="M25.96 28.0801V32.3901C25.96 32.8501 26.34 33.2201 26.81 33.2201H30.42C30.89 33.2201 31.27 32.8501 31.27 32.3901V28.0801" stroke="#FF464C"/>
<path d="M7.38 18.34C7.38 17.81 7.86 17.41 8.38 17.5L11.9991 17.501C12.69 17.501 12.69 18.57 12.69 18.99V20.28C12.69 20.75 12.31 21.13 11.84 21.13H8.23C7.76 21.13 7.38 20.75 7.38 20.28V18.35V18.34Z" stroke="#FF464C"/>
<path d="M27.96 18.34C27.96 17.81 27.48 17.41 26.96 17.5L22.9995 17.501C22.5995 17.571 22.65 18.57 22.65 18.99V20.28C22.65 20.75 23.03 21.13 23.5 21.13H27.11C27.58 21.13 27.96 20.75 27.96 20.28V18.35V18.34Z" stroke="#FF464C"/>
</svg>
