<svg width="36" height="36" viewBox="0 0 36 36" fill="none" xmlns="http://www.w3.org/2000/svg">
<g clip-path="url(#clip0_1961_49)">
<circle cx="23" cy="18" r="3.5" stroke="#FF464C"/>
<path d="M14 13C15.1046 11.8954 15 10 15 10H11V14C11 14 12.8954 14.1046 14 13Z" stroke="#FF464C" stroke-linecap="round"/>
<path d="M14 23.0002C12.8954 21.8957 11 22.0002 11 22.0002L11 26.0002L15 26.0002C15 26.0002 15.1046 24.1048 14 23.0002Z" stroke="#FF464C" stroke-linecap="round"/>
<path d="M32.0026 13C30.8981 11.8954 31.0026 10 31.0026 10H35.0026V14C35.0026 14 33.1072 14.1046 32.0026 13Z" stroke="#FF464C" stroke-linecap="round"/>
<path d="M32.0026 23C33.1072 21.8954 35.0026 22 35.0026 22L35.0026 26L31.0026 26C31.0026 26 30.8981 24.1046 32.0026 23Z" stroke="#FF464C" stroke-linecap="round"/>
</g>
<rect x="11" y="10" width="24" height="16" rx="2" stroke="#FF464C"/>
<path d="M8 16H1" stroke="#FF464C" stroke-linecap="round"/>
<path d="M8.00005 20H3.80005" stroke="#FF464C" stroke-linecap="round"/>
<defs>
<clipPath id="clip0_1961_49">
<rect x="11" y="10" width="24" height="16" rx="2" fill="white"/>
</clipPath>
</defs>
</svg>
