<svg width="36" height="36" viewBox="0 0 36 36" fill="none" xmlns="http://www.w3.org/2000/svg">
<path d="M18.58 27.54H5.93999C4.16999 27.54 2.73999 26.03 2.73999 24.16V10.64H28.33V18.86" stroke="#FF464C" stroke-linecap="round" stroke-linejoin="round"/>
<path d="M8.59998 5.01001H22.46M8.59998 5.01001H5.92998C4.15998 5.01001 2.72998 6.52001 2.72998 8.39001V10.64H28.32V8.39001C28.32 6.52001 26.89 5.01001 25.12 5.01001H22.45" stroke="#FF464C" stroke-linecap="round" stroke-linejoin="round"/>
<path d="M20.86 2.68005V7.35005" stroke="#FF464C" stroke-linecap="round" stroke-linejoin="round"/>
<path d="M10.12 2.68005V7.35005" stroke="#FF464C" stroke-linecap="round" stroke-linejoin="round"/>
<path d="M25.84 22.1101V26.4201L28.28 28.8101" stroke="#FF464C" stroke-linecap="round" stroke-linejoin="round"/>
<path d="M25.84 33.2801C29.9711 33.2801 33.32 29.9939 33.32 25.9401C33.32 21.8863 29.9711 18.6001 25.84 18.6001C21.7089 18.6001 18.36 21.8863 18.36 25.9401C18.36 29.9939 21.7089 33.2801 25.84 33.2801Z" stroke="#FF464C" stroke-linecap="round" stroke-linejoin="round"/>
</svg>
